<?xml version="1.0" standalone="no"?><!DOCTYPE svg PUBLIC "-//W3C//DTD SVG 1.1//EN" "http://www.w3.org/Graphics/SVG/1.1/DTD/svg11.dtd"><svg t="1605584332388" class="icon" viewBox="0 0 1024 1024" version="1.1" xmlns="http://www.w3.org/2000/svg" p-id="6009" xmlns:xlink="http://www.w3.org/1999/xlink" width="200" height="200"><defs><style type="text/css"></style></defs><path d="M675.108571 73.142857c55.588571 0 107.373714 29.988571 135.168 78.116572l163.254858 282.770285c27.794286 48.128 27.794286 107.885714 0 156.086857l-163.328 282.770286A156.525714 156.525714 0 0 1 674.889143 950.857143H348.598857c-55.588571 0-107.373714-29.988571-135.241143-78.116572L50.102857 590.116571a156.745143 156.745143 0 0 1 0-156.086857l163.181714-282.770285A156.525714 156.525714 0 0 1 348.525714 73.142857h326.509715zM511.634286 354.596571a157.696 157.696 0 0 0-157.476572 157.476572c0 86.893714 70.656 157.549714 157.476572 157.549714a157.549714 157.549714 0 0 0 0-315.026286z m0 87.625143a69.778286 69.778286 0 1 1 0 139.629715 69.778286 69.778286 0 0 1 0-139.629715z" p-id="6010" fill="#ffffff"></path></svg>