<?xml version="1.0" standalone="no"?><!DOCTYPE svg PUBLIC "-//W3C//DTD SVG 1.1//EN" "http://www.w3.org/Graphics/SVG/1.1/DTD/svg11.dtd"><svg t="1601347475710" class="icon" viewBox="0 0 1024 1024" version="1.1" xmlns="http://www.w3.org/2000/svg" p-id="923" width="64" height="64" xmlns:xlink="http://www.w3.org/1999/xlink"><defs><style type="text/css"></style></defs><path d="M512 658.285714c-242.322286 0-438.857143-65.462857-438.857143-146.285714 0-39.131429 46.445714-74.605714 121.709714-100.937143A46.445714 46.445714 0 0 0 182.857143 438.857143c0 60.635429 147.309714 109.714286 329.142857 109.714286s329.142857-49.078857 329.142857-109.714286a46.372571 46.372571 0 0 0-11.995428-27.794286C904.338286 437.321143 950.857143 472.868571 950.857143 512c0 80.749714-196.534857 146.285714-438.857143 146.285714z m0-256c-242.322286 0-438.857143-65.536-438.857143-146.285714 0-80.822857 196.461714-146.285714 438.857143-146.285714 242.322286 0 438.857143 65.536 438.857143 146.285714s-196.534857 146.285714-438.857143 146.285714zM194.852571 667.062857a46.445714 46.445714 0 0 0-11.995428 27.794286c0 60.635429 147.309714 109.714286 329.142857 109.714286s329.142857-49.078857 329.142857-109.714286a46.372571 46.372571 0 0 0-11.995428-27.794286C904.338286 693.394286 950.857143 728.941714 950.857143 768c0 80.749714-196.534857 146.285714-438.857143 146.285714-242.395429 0-438.857143-65.536-438.857143-146.285714 0-39.131429 46.445714-74.678857 121.709714-100.937143z" p-id="924" fill="#ffffff"></path></svg>